<svg width="56" height="56" viewBox="0 0 56 56" fill="none" xmlns="http://www.w3.org/2000/svg">
<path d="M55.7831 42.339C55.1808 40.6852 53.489 39.7244 51.7601 40.0551L40.8672 42.1372C41.0315 41.7258 41.122 41.2779 41.122 40.8108C41.122 39.8241 40.7077 38.8726 39.9853 38.2005C39.2629 37.5282 38.2832 37.1837 37.2997 37.2546L34.1052 37.4851C32.7164 37.5851 31.3527 37.2575 30.1614 36.5374L26.3844 34.2545C23.8299 32.7103 20.7105 32.5851 18.0401 33.9199L13.0366 36.4211V35.0037C13.0366 33.7699 12.0329 32.7661 10.7991 32.7661H2.23757C1.00383 32.7661 0 33.7699 0 35.0037V39.3358C0 39.7889 0.367168 40.1561 0.820303 40.1561C1.27344 40.1561 1.64061 39.7889 1.64061 39.3358V35.0037C1.64061 34.6745 1.90835 34.4067 2.23757 34.4067H10.7992C11.1283 34.4067 11.3961 34.6745 11.3961 35.0037V53.7615C11.3961 54.0907 11.1283 54.3584 10.7992 54.3584H2.23757C1.90835 54.3584 1.64061 54.0907 1.64061 53.7615V42.6155C1.64061 42.1624 1.27344 41.7952 0.820303 41.7952C0.367168 41.7952 0 42.1624 0 42.6155V53.7615C0 54.9952 1.00383 55.999 2.23757 55.999H10.7992C12.033 55.999 13.0367 54.9952 13.0367 53.7615V52.9436L15.4879 53.9434C18.3817 55.1236 21.4484 55.7159 24.519 55.7159C27.1959 55.7159 29.8759 55.2658 32.4463 54.3627L42.4252 50.8571C42.8526 50.7069 43.0775 50.2387 42.9273 49.8112C42.7772 49.384 42.3088 49.1591 41.8815 49.3092L31.9026 52.8149C26.7621 54.6207 21.1524 54.482 16.1074 52.4244L13.0366 51.1718V38.2553L18.7737 35.3875C20.9375 34.3057 23.4654 34.4072 25.5357 35.6586L29.3127 37.9416C30.796 38.8381 32.4937 39.246 34.2233 39.1215L37.4177 38.8909C37.9569 38.8524 38.4719 39.0334 38.8676 39.4016C39.2633 39.7699 39.4812 40.2702 39.4812 40.8109C39.4812 41.7488 38.8113 42.5452 37.8879 42.7068L37.8766 42.7089L31.1093 43.8756C29.0936 44.223 27.0495 44.223 25.0341 43.8751L22.4063 43.4216C21.9589 43.3447 21.5355 43.6441 21.4585 44.0904C21.3815 44.5369 21.6808 44.9613 22.1273 45.0383L24.7551 45.4917C26.9554 45.8716 29.1869 45.8717 31.3881 45.4923C31.4009 45.4901 38.1581 44.3248 38.1732 44.3222C38.1744 44.322 38.1756 44.3219 38.1767 44.3217L52.0679 41.6664C53.0015 41.489 53.9159 42.0068 54.2414 42.9003C54.609 43.9099 54.0823 45.0229 53.0687 45.3789L45.0142 48.2085C44.5868 48.3586 44.362 48.8269 44.5121 49.2543C44.6626 49.6825 45.1316 49.9062 45.558 49.7563L53.6124 46.9267C55.4887 46.2681 56.4637 44.2074 55.7831 42.339Z" fill="#062D6F"/>
<path d="M8.65521 50.4014V48.3296C8.65521 47.8764 8.28804 47.5093 7.8349 47.5093C7.38176 47.5093 7.01459 47.8764 7.01459 48.3296V50.4014C7.01459 50.8545 7.38176 51.2217 7.8349 51.2217C8.28804 51.2217 8.65521 50.8545 8.65521 50.4014Z" fill="#062D6F"/>
<path d="M33.7876 5.16969C34.2407 5.16969 34.6079 4.80251 34.6079 4.34937V0.821045C34.6079 0.367904 34.2407 0.000732422 33.7876 0.000732422C33.3345 0.000732422 32.9673 0.367904 32.9673 0.821045V4.34948C32.9673 4.80251 33.3345 5.16969 33.7876 5.16969Z" fill="#062D6F"/>
<path d="M43.9556 8.9009L46.4505 6.40594C46.7709 6.08548 46.7709 5.56616 46.4505 5.2458C46.1301 4.92555 45.6108 4.92555 45.2904 5.2458L42.7954 7.74076C42.4751 8.06123 42.4751 8.58054 42.7954 8.9009C43.1159 9.22115 43.6351 9.22104 43.9556 8.9009Z" fill="#062D6F"/>
<path d="M23.6197 8.90101C23.9403 9.22136 24.4595 9.22126 24.7798 8.90101C25.1002 8.58054 25.1002 8.06122 24.7798 7.74086L22.2849 5.2458C21.9644 4.92555 21.4451 4.92555 21.1247 5.2458C20.8044 5.56627 20.8044 6.08558 21.1247 6.40594L23.6197 8.90101Z" fill="#062D6F"/>
<path d="M16.7001 18.729H20.2285C20.6817 18.729 21.0488 18.3618 21.0488 17.9087C21.0488 17.4556 20.6817 17.0884 20.2285 17.0884H16.7001C16.2469 17.0884 15.8798 17.4556 15.8798 17.9087C15.8798 18.3618 16.2469 18.729 16.7001 18.729Z" fill="#062D6F"/>
<path d="M47.3469 18.729H50.8753C51.3284 18.729 51.6956 18.3618 51.6956 17.9087C51.6956 17.4556 51.3284 17.0884 50.8753 17.0884H47.3469C46.8938 17.0884 46.5266 17.4556 46.5266 17.9087C46.5266 18.3618 46.8938 18.729 47.3469 18.729Z" fill="#062D6F"/>
<path d="M28.2299 26.7071C28.3897 26.8144 28.4851 26.9907 28.4851 27.1785V31.2845C28.4851 33.3164 30.1383 34.9695 32.1702 34.9695H35.4048C37.4368 34.9695 39.0899 33.3164 39.0899 31.2845V27.1784C39.0899 26.9906 39.1844 26.815 39.3427 26.7086C42.1096 24.8499 43.7614 21.753 43.7614 18.4246C43.7614 12.9737 39.3881 8.52547 33.9249 8.45143C32.0431 8.42485 30.2019 8.93475 28.5933 9.92283C28.2072 10.16 28.0864 10.665 28.3235 11.0511C28.5608 11.4371 29.066 11.5579 29.4517 11.3207C30.7954 10.4955 32.3359 10.0749 33.9026 10.0918C38.3973 10.1526 42.1207 13.8066 42.1207 18.4246C42.1207 21.2057 40.7402 23.7934 38.4277 25.3468C37.8148 25.7584 37.449 26.4431 37.449 27.1784V27.6878H34.6076V22.7276C35.729 22.3775 36.5454 21.3294 36.5454 20.094C36.5454 19.6409 36.1782 19.2737 35.7251 19.2737C35.2719 19.2737 34.9048 19.6409 34.9048 20.094C34.9048 20.7102 34.4035 21.2116 33.7873 21.2116C33.1711 21.2116 32.6697 20.7102 32.6697 20.094C32.6697 19.6409 32.3026 19.2737 31.8494 19.2737C31.3963 19.2737 31.0291 19.6409 31.0291 20.094C31.0291 21.3294 31.8455 22.3775 32.967 22.7276V27.6878H30.1255V27.1785C30.1255 26.4434 29.7589 25.7583 29.1449 25.3455C26.7849 23.7591 25.4056 21.1159 25.4552 18.2749C25.4868 16.4646 26.0964 14.7493 27.218 13.3144C27.497 12.9574 27.4338 12.4418 27.0769 12.1629C26.7197 11.884 26.2044 11.9471 25.9254 12.304C24.5826 14.022 23.8528 16.0769 23.8148 18.2464C23.7557 21.646 25.4061 24.809 28.2299 26.7071ZM37.4494 29.3285V31.2845C37.4494 32.4118 36.5322 33.3289 35.4049 33.3289H32.1703C31.0429 33.3289 30.1258 32.4117 30.1258 31.2845V29.3285H37.4494Z" fill="#062D6F"/>
</svg>
