<svg width="46" height="56" viewBox="0 0 46 56" fill="none" xmlns="http://www.w3.org/2000/svg">
<path d="M19.5583 36.7654C19.1052 36.7654 18.738 37.1326 18.738 37.5857V38.2487C18.738 38.7019 19.1052 39.069 19.5583 39.069C20.0115 39.069 20.3787 38.7019 20.3787 38.2487V37.5857C20.3787 37.1326 20.0114 36.7654 19.5583 36.7654Z" fill="#062D6F"/>
<path d="M19.5583 43.7321C19.1052 43.7321 18.738 44.0992 18.738 44.5524V45.2154C18.738 45.6685 19.1052 46.0357 19.5583 46.0357C20.0115 46.0357 20.3787 45.6685 20.3787 45.2154V44.5524C20.3787 44.0992 20.0114 43.7321 19.5583 43.7321Z" fill="#062D6F"/>
<path d="M19.5583 50.6989C19.1052 50.6989 18.738 51.066 18.738 51.5192V52.1822C18.738 52.6353 19.1052 53.0025 19.5583 53.0025C20.0115 53.0025 20.3787 52.6353 20.3787 52.1822V51.5192C20.3787 51.0661 20.0114 50.6989 19.5583 50.6989Z" fill="#062D6F"/>
<path d="M19.1277 21.0955C19.5281 20.8833 19.6804 20.3867 19.4681 19.9864C19.2558 19.5861 18.7593 19.4336 18.3591 19.646C17.2926 20.2115 16.2562 20.2115 15.1905 19.646C14.79 19.4337 14.2936 19.5862 14.0813 19.9863C13.8691 20.3866 14.0214 20.8831 14.4216 21.0955C15.2024 21.5096 15.9882 21.7165 16.7746 21.7165C17.5608 21.7165 18.3471 21.5094 19.1277 21.0955Z" fill="#062D6F"/>
<path d="M13.8932 40.6372V38.6466C13.8932 37.7921 13.198 37.0968 12.3434 37.0968H5.19347C4.33903 37.0968 3.64374 37.792 3.64374 38.6466V40.6372C3.64374 41.4916 4.33892 42.1869 5.19347 42.1869H12.3434C13.1979 42.1869 13.8932 41.4917 13.8932 40.6372ZM12.2525 40.5463H5.28436V38.7374H12.2525V40.5463Z" fill="#062D6F"/>
<path d="M45.8685 41.3043C45.8685 40.2099 44.9782 39.3195 43.8838 39.3195H40.8435C40.3904 39.3195 40.0232 39.6867 40.0232 40.1399C40.0232 40.593 40.3904 40.9602 40.8435 40.9602H43.8838C44.0734 40.9602 44.2279 41.1145 44.2279 41.3043V44.7517C44.2279 44.9413 44.0736 45.0957 43.8838 45.0957H26.5761C26.3864 45.0957 26.232 44.9414 26.232 44.7517V41.3043C26.232 41.1146 26.3863 40.9602 26.5761 40.9602H37.5638C38.0169 40.9602 38.3841 40.593 38.3841 40.1399C38.3841 39.6867 38.0169 39.3195 37.5638 39.3195H33.4184V31.1092C33.4184 26.4742 30.3761 22.4462 26.0361 21.1193C26.8909 19.5911 27.3791 17.8314 27.3791 15.9595V13.7235H27.7416C29.3643 13.7235 30.6844 12.4033 30.6844 10.7805C30.6605 10.1101 30.7802 9.0522 30.4185 7.53375C30.3541 7.26305 30.3824 6.98469 30.4983 6.74975C30.8383 6.06003 30.9774 5.2862 30.9004 4.51205C30.7087 2.58387 29.1709 1.03622 27.2437 0.831906C26.7268 0.777109 26.2135 0.817469 25.7188 0.952C25.4674 1.02036 25.2033 1.00002 24.9755 0.895125C23.6865 0.301109 22.3098 0 20.8839 0C19.2612 0 17.941 1.32016 17.941 2.94284V3.65127H15.6087V2.94284C15.6086 1.32016 14.2884 0 12.6656 0C11.2398 0 9.86324 0.301109 8.57371 0.895125C8.34599 1.00013 8.08196 1.02025 7.83073 0.952C7.3357 0.817578 6.82251 0.777109 6.30571 0.831906C4.37863 1.03622 2.84071 2.58398 2.64898 4.51216C2.57209 5.28664 2.7111 6.06036 3.05115 6.74964C3.16709 6.98458 3.1953 7.26305 3.13088 7.53375C2.76896 9.05417 2.88895 10.1115 2.86499 10.7805C2.86499 12.4033 4.18515 13.7235 5.80795 13.7235H6.17041V15.9595C6.17041 17.8314 6.65866 19.5911 7.51343 21.1193C3.17354 22.4462 0.131165 26.4742 0.131165 31.1092V54.1959C0.131165 55.1907 0.94043 56 1.9352 56H6.11124C6.56438 56 6.93156 55.6328 6.93156 55.1797C6.93156 54.7265 6.56438 54.3594 6.11124 54.3594H1.93541C1.84529 54.3594 1.77201 54.286 1.77201 54.1959V31.1092C1.77201 28.4513 2.95818 26.0295 4.86787 24.4004L7.69598 27.7372C7.85818 27.9286 8.08951 28.027 8.32226 28.027C8.50962 28.027 8.69807 27.9631 8.85229 27.8325C9.19781 27.5395 9.24057 27.022 8.94767 26.6763L6.21712 23.4546C6.91329 23.0575 7.67126 22.7515 8.47724 22.5545C9.43362 23.7553 10.6445 24.7445 12.0278 25.4399L15.7029 31.6237L14.2947 32.737C14.2241 32.793 14.1231 32.7827 14.0649 32.7141L11.0811 29.1936C10.7882 28.8481 10.2708 28.8052 9.92493 29.0982C9.57942 29.3912 9.53665 29.9088 9.82956 30.2544L12.8134 33.7749C13.1717 34.1976 13.6788 34.416 14.1908 34.416C14.5834 34.416 14.9789 34.2874 15.3123 34.0238L15.9546 33.516V54.3594H9.39118C8.93804 54.3594 8.57087 54.7265 8.57087 55.1797C8.57087 55.6328 8.93804 56 9.39118 56H31.6142C32.6091 56 33.4184 55.1907 33.4184 54.1959V52.5122H43.884C44.9784 52.5122 45.8687 51.6219 45.8687 50.5276V47.0801C45.8687 46.6449 45.7263 46.2433 45.4879 45.9157C45.7263 45.5883 45.8687 45.1865 45.8687 44.7513V41.3043H45.8685ZM27.3325 23.4545L19.4847 32.7141C19.4266 32.7827 19.3257 32.7931 19.2548 32.737L17.8467 31.6237L21.5219 25.4399C22.905 24.7445 24.116 23.7554 25.0724 22.5545C25.8785 22.7514 26.6363 23.0575 27.3325 23.4545ZM24.6745 13.3513C24.2993 11.6811 22.8055 10.4291 21.0236 10.4291C19.2418 10.4291 17.7479 11.6811 17.3727 13.3513H16.1767C15.8015 11.6811 14.3077 10.4291 12.5259 10.4291C10.744 10.4291 9.2502 11.6811 8.87504 13.3513H7.81104V9.80055C7.81104 7.31445 9.8336 5.29178 12.3198 5.29178H21.2296C23.7157 5.29178 25.7384 7.31434 25.7384 9.80055V13.3513H24.6745ZM23.1255 14.1716C23.1255 15.3307 22.1826 16.2736 21.0236 16.2736C19.8646 16.2736 18.9217 15.3307 18.9217 14.1716C18.9217 13.0127 19.8646 12.0697 21.0236 12.0697C22.1826 12.0699 23.1255 13.0128 23.1255 14.1716ZM14.6278 14.1716C14.6278 15.3307 13.6849 16.2736 12.526 16.2736C11.367 16.2736 10.4241 15.3307 10.4241 14.1716C10.4241 13.0127 11.367 12.0697 12.526 12.0697C13.6849 12.0697 14.6278 13.0128 14.6278 14.1716ZM19.5816 2.94284C19.5816 2.2248 20.1659 1.64062 20.884 1.64062C22.0711 1.64062 23.2167 1.89109 24.289 2.38514C24.8659 2.65114 25.5266 2.70441 26.1492 2.53509C26.4469 2.45405 26.7571 2.4302 27.0709 2.46334C28.2288 2.58617 29.1528 3.51597 29.2681 4.67447C29.3147 5.14314 29.2314 5.60995 29.0271 6.02427C28.7426 6.60111 28.6699 7.27212 28.8227 7.91372C29.1301 9.20511 29.0209 10.0859 29.0439 10.7805C29.0439 11.4986 28.4597 12.0829 27.7417 12.0829H27.3792V9.80055C27.3792 6.40981 24.6206 3.65116 21.2298 3.65116H19.5818V2.94284H19.5816ZM5.80806 12.0829C5.09001 12.0829 4.50573 11.4986 4.50573 10.7805C4.52848 10.0932 4.41888 9.2085 4.72688 7.91361C4.87957 7.27223 4.80706 6.60122 4.52268 6.02416C4.31837 5.61006 4.23491 5.14325 4.28151 4.67447C4.39679 3.51608 5.32079 2.58617 6.47874 2.46334C6.79265 2.4302 7.10273 2.45427 7.40056 2.53509C8.0229 2.7043 8.68352 2.65092 9.26037 2.38525C10.3328 1.89109 11.4786 1.64062 12.6656 1.64062C13.3837 1.64062 13.968 2.2248 13.968 2.94284V3.65127H12.3199C8.92918 3.65127 6.17052 6.40992 6.17052 9.80066V12.0829H5.80806ZM7.81115 15.9595V14.9919H8.87515C9.2502 16.6622 10.7442 17.9142 12.526 17.9142C14.3078 17.9142 15.8017 16.6622 16.1768 14.9919H17.3728C17.7479 16.6622 19.2418 17.9142 21.0238 17.9142C22.8055 17.9142 24.2994 16.6622 24.6746 14.9919H25.7386V15.9595C25.7386 20.9019 21.7175 24.923 16.775 24.923C11.8324 24.923 7.81115 20.902 7.81115 15.9595ZM16.7748 26.5636C17.5728 26.5636 18.3502 26.4743 19.0982 26.3065L16.7748 30.2162L14.4513 26.3065C15.1993 26.4744 15.9769 26.5636 16.7748 26.5636ZM31.7776 54.1959C31.7776 54.286 31.7042 54.3594 31.6141 54.3594H17.5951V33.5161L18.2372 34.0239C18.5707 34.2876 18.9661 34.4162 19.3589 34.4162C19.8707 34.4162 20.3778 34.1976 20.7362 33.775L28.6817 24.4004C30.5914 26.0296 31.7776 28.4513 31.7776 31.1093V39.3197H26.576C25.4816 39.3197 24.5912 40.21 24.5912 41.3044V44.7518C24.5912 45.187 24.7337 45.5886 24.9721 45.9162C24.7337 46.2436 24.5912 46.6454 24.5912 47.0806V50.5281C24.5912 51.6224 25.4816 52.5127 26.576 52.5127H31.7776V54.1959ZM44.2279 50.5277C44.2279 50.7174 44.0736 50.8717 43.8838 50.8717H26.5761C26.3864 50.8717 26.232 50.7175 26.232 50.5277V47.0802C26.232 46.8906 26.3863 46.7362 26.5761 46.7362H43.8839C44.0736 46.7362 44.228 46.8905 44.228 47.0802V50.5277H44.2279Z" fill="#062D6F"/>
</svg>
