<svg width="44" height="56" viewBox="0 0 44 56" fill="none" xmlns="http://www.w3.org/2000/svg">
<path d="M21.9771 15.1464C21.8113 14.7435 21.4229 14.4834 20.9873 14.4834H20.9862C20.5502 14.4838 20.1617 14.7449 19.9967 15.1484C19.9942 15.1546 19.9917 15.1608 19.9894 15.1671L15.849 26.0384C15.6877 26.4617 15.9003 26.9356 16.3237 27.0969C16.7464 27.2583 17.2209 27.0458 17.3822 26.6223L18.2121 24.4432H23.7325L24.554 26.62C24.7141 27.0443 25.1877 27.2575 25.6111 27.0977C26.0349 26.9378 26.2488 26.4645 26.0888 26.0406L21.986 15.169C21.9831 15.1613 21.9801 15.1539 21.9771 15.1464ZM18.8369 22.8025L20.9849 17.1628L23.1132 22.8025H18.8369Z" fill="#062D6F"/>
<path d="M26.8889 17.1026V16.6073H27.3843C27.8374 16.6073 28.2046 16.2401 28.2046 15.787C28.2046 15.3338 27.8374 14.9667 27.3843 14.9667H26.8889V14.4712C26.8889 14.0181 26.5217 13.6509 26.0686 13.6509C25.6155 13.6509 25.2483 14.0181 25.2483 14.4712V14.9667H24.7529C24.2998 14.9667 23.9326 15.3338 23.9326 15.787C23.9326 16.2401 24.2998 16.6073 24.7529 16.6073H25.2483V17.1026C25.2483 17.5558 25.6155 17.923 26.0686 17.923C26.5217 17.923 26.8889 17.5558 26.8889 17.1026Z" fill="#062D6F"/>
<path d="M33.2753 20.2706C33.2804 20.7204 33.6467 21.0816 34.0953 21.0816H34.1049C34.5579 21.0765 34.9209 20.705 34.9158 20.252C34.836 13.1783 29.0863 7.48291 21.9999 7.48291C14.8771 7.48291 9.0824 13.2777 9.0824 20.4005C9.0824 27.5234 14.8771 33.3181 21.9999 33.3181C27.8453 33.3181 32.9781 29.3775 34.482 23.7351C34.5986 23.2973 34.3384 22.8479 33.9007 22.7312C33.4626 22.6143 33.0135 22.8748 32.8967 23.3125C31.584 28.2376 27.1031 31.6774 21.9999 31.6774C15.7818 31.6774 10.723 26.6185 10.723 20.4004C10.723 14.1823 15.7818 9.12352 21.9999 9.12352C28.1741 9.12352 33.2055 14.0849 33.2753 20.2706Z" fill="#062D6F"/>
<path d="M39.1967 32.8961C40.5878 30.9845 39.7371 28.169 40.3261 26.3552C40.884 24.6364 43.2557 22.8254 43.2557 20.4007C43.2557 17.9746 40.8845 16.1661 40.3261 14.4463C39.7364 12.6299 40.5885 9.81789 39.1967 7.90527C37.7922 5.9757 34.8472 5.92342 33.3235 4.81436C31.8183 3.71909 30.861 0.924153 28.5696 0.18041C26.349 -0.54113 23.944 1.13678 22 1.13678C20.0535 1.13678 17.652 -0.541458 15.4304 0.1803C13.138 0.924699 12.1824 3.71855 10.6766 4.81436C10.3458 5.0551 9.92037 5.26608 9.29716 5.49828C8.87257 5.65654 8.65677 6.12893 8.81504 6.55341C8.97308 6.978 9.44569 7.19368 9.87006 7.03564C10.6388 6.74908 11.1854 6.47302 11.6419 6.14085C13.3794 4.87638 14.3218 2.26497 15.9371 1.74074C17.4768 1.24046 19.7856 2.77738 22.0001 2.77738C24.2129 2.77738 26.5238 1.24112 28.0632 1.74074C29.679 2.2653 30.6182 4.87474 32.3583 6.14085C34.1066 7.41309 36.8855 7.51732 37.8703 8.8705C38.843 10.2072 38.0908 12.8735 38.7659 14.9527C39.422 16.9728 41.6154 18.6646 41.6154 20.4006C41.6154 22.1448 39.4268 23.8135 38.7659 25.8486C38.0907 27.928 38.8433 30.5938 37.8703 31.9307C36.8852 33.2844 34.1106 33.3851 32.3583 34.6603C30.6218 35.9239 29.6781 38.5363 28.0631 39.0604C26.5231 39.5611 24.2155 38.0238 22.0001 38.0238C19.7872 38.0238 17.4766 39.5602 15.9371 39.0604C14.3207 38.5358 13.383 35.9273 11.6419 34.6603C9.89368 33.3881 7.11471 33.2839 6.12991 31.9307C5.15714 30.5941 5.90952 27.9284 5.23435 25.8485C4.57822 23.8284 2.38495 22.1366 2.38495 20.4006C2.38495 18.6572 4.57363 16.9869 5.23435 14.9527C5.90985 12.8721 5.15681 10.2076 6.12991 8.87039C6.31584 8.61478 6.5779 8.38925 6.93074 8.18046C7.32066 7.95001 7.45005 7.44689 7.21949 7.05697C6.98904 6.66694 6.4857 6.53788 6.096 6.76822C5.54651 7.09306 5.12356 7.46493 4.80342 7.90516C3.4124 9.81647 4.26301 12.632 3.67392 14.4461C3.11458 16.1691 0.744446 17.9735 0.744446 20.4006C0.744446 22.8276 3.11513 24.6336 3.67392 26.3551C4.26322 28.1696 3.4124 30.9847 4.80342 32.896C5.76187 34.2129 7.4051 34.6399 8.93251 35.1721L3.13886 48.1356C3.0203 48.4011 3.05092 48.7093 3.21947 48.946C3.3879 49.1828 3.66834 49.313 3.95884 49.2876L11.777 48.6084L15.6223 55.576C15.7666 55.8376 16.0418 55.9999 16.3404 55.9999H16.3446C16.6448 55.9984 16.9202 55.833 17.0625 55.5688L19.2126 51.5781C19.4275 51.1793 19.2784 50.6817 18.8795 50.4668C18.4804 50.2519 17.9831 50.401 17.7683 50.7999L16.3317 53.4664L12.9555 47.3488C12.7988 47.065 12.4893 46.899 12.1663 46.9279L5.20515 47.5325L10.4362 35.8281C12.1414 36.8637 13.0286 39.8414 15.4301 40.621C17.6527 41.3432 20.0529 39.6646 21.9996 39.6646C23.588 39.6646 25.5281 40.8019 27.3759 40.8017C30.6944 40.8017 31.6097 37.0145 33.5632 35.8281L38.7942 47.5325L31.8331 46.9279C31.5087 46.8978 31.2006 47.0649 31.0439 47.3488L27.6677 53.4664L23.5379 45.8012C23.2326 45.2345 22.6431 44.8826 21.9996 44.8826C21.356 44.8826 20.7665 45.2346 20.4613 45.8012L19.3413 47.8798C19.1264 48.2786 19.2755 48.7761 19.6743 48.991C20.0731 49.2059 20.5705 49.0567 20.7856 48.658L21.9056 46.5793C21.9464 46.504 22.0523 46.503 22.0937 46.5793L26.937 55.5688C27.0794 55.833 27.3547 55.9985 27.6549 55.9999H27.6591C27.9577 55.9999 28.2328 55.8376 28.3772 55.576L32.2225 48.6084L40.0406 49.2876C40.33 49.3128 40.6115 49.1828 40.78 48.946C40.9486 48.7093 40.9792 48.4011 40.8606 48.1356L35.067 35.1722C36.5928 34.6407 38.2374 34.214 39.1967 32.8961Z" fill="#062D6F"/>
</svg>
