<svg width="44" height="56" viewBox="0 0 44 56" fill="none" xmlns="http://www.w3.org/2000/svg">
<path d="M14.7214 27.559C19.5505 29.5798 24.4486 29.5802 29.2787 27.5589C30.0345 27.2424 30.5228 26.5098 30.5228 25.6925V17.8032L34.3287 15.709C34.6767 15.5177 34.8929 15.1521 34.893 14.7551C34.8931 14.358 34.6769 13.9923 34.329 13.8007L22.5254 7.30539C22.1965 7.12426 21.8036 7.12404 21.4749 7.30517L16.1086 10.2581C15.7117 10.4765 15.5671 10.9754 15.7854 11.3724C16.0039 11.7694 16.5026 11.9141 16.8997 11.6956L22 8.88904L32.6596 14.7548C31.9327 15.1548 27.2909 17.7091 26.6792 18.0458L22.5632 14.1585C22.2339 13.8474 21.7147 13.8619 21.4036 14.1916C21.0924 14.5209 21.1073 15.0401 21.4368 15.3512L25.1694 18.8766L21.9954 20.6232C21.2026 20.2096 18.6517 18.747 11.3436 14.753L13.9677 13.3091C14.3646 13.0907 14.5092 12.5919 14.2909 12.1948C14.0725 11.7981 13.5737 11.6532 13.1766 11.8716L9.67052 13.801C9.3227 13.9925 9.10679 14.3582 9.1069 14.7552C9.10701 15.1521 9.32314 15.5177 9.67336 15.7102C11.1111 16.4948 12.3707 17.1848 13.477 17.7925V25.6924C13.4771 26.5098 13.9655 27.2424 14.7214 27.559ZM21.357 22.1387C21.5351 22.2278 21.7702 22.3456 22.0391 22.3456C22.1955 22.3456 22.3633 22.3058 22.5378 22.1973L25.7303 20.4405V24.8135C25.7303 25.2667 26.0975 25.6339 26.5506 25.6339C27.0038 25.6339 27.371 25.2667 27.371 24.8135V19.5377L28.8821 18.7061V25.6924C28.8821 25.8466 28.789 25.9852 28.6451 26.0454C24.2359 27.8906 19.7643 27.8906 15.3548 26.0455C15.2107 25.9852 15.1177 25.8467 15.1177 25.6924V18.695C19.3397 21.0222 20.7897 21.8553 21.357 22.1387Z" fill="#062D6F"/>
<path d="M39.4729 7.99072C39.4729 7.53758 39.1057 7.17041 38.6526 7.17041H34.8554C34.4023 7.17041 34.0351 7.53758 34.0351 7.99072C34.0351 8.44386 34.4023 8.81104 34.8554 8.81104H38.6526C39.1057 8.81104 39.4729 8.44375 39.4729 7.99072Z" fill="#062D6F"/>
<path d="M42.5873 13.9383C43.0405 13.9383 43.4077 13.5712 43.4077 13.118V6.09826C43.4077 4.70623 42.2752 3.57386 40.8833 3.57386H25.2306V3.23064C25.2306 1.44923 23.7813 0 21.9999 0C20.2185 0 18.7693 1.44923 18.7693 3.23064V3.57386H3.1167C1.72478 3.57386 0.592407 4.70634 0.592407 6.09826V30.1514C0.592407 31.5434 1.72489 32.6758 3.1167 32.6758H9.6587V34.6667C9.6587 35.7623 10.5498 36.6533 11.6453 36.6533H11.8674C9.98781 39.941 8.40262 42.8725 6.97133 45.6582C6.76428 46.0612 6.9232 46.5557 7.32604 46.7628C7.72909 46.9695 8.22347 46.8109 8.43063 46.408C10.1437 43.0736 11.9381 39.8109 13.7587 36.6533H18.0172C17.8022 37.0091 17.588 37.3612 17.3819 37.6993C14.4195 42.559 11.2892 47.3372 8.01259 51.8821C7.43585 52.6775 6.91478 53.3865 6.41975 54.0491C6.10791 54.4668 5.4416 54.4769 5.13534 53.998C5.06622 53.89 4.92293 53.6013 5.08361 53.253C5.42541 52.5131 5.80046 51.7175 6.22932 50.8226C6.46831 50.3273 6.7109 49.8341 6.95394 49.3412C7.15421 48.9348 6.98719 48.443 6.58075 48.2427C6.1742 48.0426 5.68255 48.2096 5.48228 48.6159C5.23739 49.1129 4.99272 49.6101 4.75078 50.1115C4.31765 51.0155 3.93932 51.8181 3.59423 52.5652C3.24696 53.3173 3.30646 54.1835 3.75338 54.8821C4.6729 56.3198 6.73234 56.372 7.73423 55.0309C8.23397 54.362 8.75952 53.6469 9.34227 52.8432C12.6939 48.1938 15.8471 43.369 18.7829 38.5531C18.7842 38.5509 18.7856 38.5486 18.7869 38.5463L19.4311 50.878C19.499 52.1764 20.5708 53.1936 21.8711 53.1936C23.1713 53.1936 24.243 52.1764 24.3109 50.878L24.9553 38.5464C24.9566 38.5486 24.958 38.5509 24.9593 38.553C27.8937 43.367 31.0521 48.1991 34.4012 52.8449C34.9826 53.6468 35.5082 54.3619 36.0079 55.0309C37.0093 56.3709 39.0687 56.3205 39.9889 54.882C40.4358 54.1834 40.4952 53.3172 40.1479 52.5653C39.8058 51.8243 39.4276 51.0217 38.9904 50.1094C37.036 46.0591 34.7813 41.7368 31.8746 36.6531H32.3548C33.4503 36.6531 34.3415 35.762 34.3415 34.6665V32.6756H40.8834C42.2754 32.6756 43.4078 31.5431 43.4078 30.1512V16.3978C43.4078 15.9446 43.0406 15.5774 42.5875 15.5774C42.1343 15.5774 41.7671 15.9446 41.7671 16.3978V30.1514C41.7671 30.6386 41.3706 31.0351 40.8834 31.0351H3.1167C2.62943 31.0351 2.23305 30.6386 2.23305 30.1514V6.09826C2.23305 5.61099 2.62943 5.2145 3.1167 5.2145H40.8833C41.3705 5.2145 41.767 5.61099 41.767 6.09826V13.118C41.767 13.5711 42.1342 13.9383 42.5873 13.9383ZM22.6723 50.7926C22.6501 51.2191 22.298 51.5532 21.871 51.5532C21.4439 51.5532 21.0918 51.2191 21.0696 50.7926L20.3309 36.6535H23.4111L22.6723 50.7926ZM37.5117 50.8208C37.9445 51.7239 38.3196 52.5195 38.6583 53.2533C38.8191 53.6015 38.6757 53.8902 38.6067 53.9983C38.2996 54.4778 37.6336 54.4663 37.3222 54.0494C36.8272 53.3866 36.3061 52.6777 35.7306 51.8841C32.4578 47.3442 29.3211 42.5575 26.36 37.6994C26.1545 37.3622 25.9405 37.0106 25.7246 36.6535H29.9832C32.7074 41.3778 35.2161 46.0636 37.5117 50.8208ZM32.7007 32.6758V34.6667C32.7007 34.8575 32.5455 35.0127 32.3547 35.0127H11.6452C11.4544 35.0127 11.2992 34.8575 11.2992 34.6667V32.6758H32.7007ZM20.4099 3.57386V3.23064C20.4099 2.35388 21.1232 1.64064 21.9999 1.64064C22.8767 1.64064 23.5899 2.35388 23.5899 3.23064V3.57386H20.4099Z" fill="#062D6F"/>
</svg>
