<svg width="40" height="40" viewBox="0 0 40 40" fill="none" xmlns="http://www.w3.org/2000/svg">
<path fill-rule="evenodd" clip-rule="evenodd" d="M0 20.0005C0 8.95473 8.95491 0.000488281 20 0.000488281C31.0451 0.000488281 40 8.95473 40 20.0005C40 31.0449 31.0444 40.0005 20 40.0005C8.95557 40.0005 0 31.0449 0 20.0005ZM3 20.0005C3 29.3881 10.6124 37.0005 20 37.0005C29.3876 37.0005 37 29.3881 37 20.0005C37 10.6116 29.3883 3.00049 20 3.00049C10.6117 3.00049 3 10.6116 3 20.0005ZM15.9114 13.9531C15.4745 13.3668 15.5211 12.5334 16.0525 11.9997C16.637 11.4127 17.5867 11.4106 18.1738 11.9951L25.1458 18.9371L25.2918 19.1056C25.7297 19.6937 25.6811 20.53 25.1458 21.063L18.1738 28.005L18.0052 28.1499C17.4171 28.5844 16.5838 28.5341 16.0525 28.0005L15.9076 27.8319C15.4731 27.2437 15.5233 26.4105 16.057 25.8791L21.96 19.9981L16.057 14.121L15.9114 13.9531Z" fill="#45536B"/>
</svg>
