<svg width="270" height="578" viewBox="0 0 270 578" fill="none" xmlns="http://www.w3.org/2000/svg">
<g opacity="0.1" clip-path="url(#clip0)">
<path d="M276.557 38.4499C275.503 39.504 274.185 40.295 272.737 40.4277C270.762 40.8242 268.655 40.5624 266.945 39.3787C266.155 38.8527 265.761 37.668 266.42 36.7458C266.947 35.9554 268.132 35.5595 269.054 36.2172C269.975 36.8748 271.028 36.874 271.95 36.7417C273.003 36.4775 273.794 35.9503 274.453 35.0282C275.639 33.3156 275.114 30.6827 273.272 29.6308C272.482 29.1047 272.088 27.92 272.747 26.9978C273.274 26.2075 274.46 25.8116 275.381 26.4692C277.092 27.6529 278.275 29.3637 278.669 31.3384C279.062 33.3131 278.797 35.4199 277.611 37.1324C277.347 37.6593 276.952 38.0546 276.557 38.4499Z" fill="#062D6F"/>
<path d="M263.744 445.436C263.612 445.568 263.612 445.568 263.48 445.7C262.69 446.227 261.505 446.096 260.847 445.175C259.664 443.464 257.821 442.149 255.715 441.624C253.609 441.099 251.502 441.627 249.526 442.814C247.813 444 246.495 445.844 245.967 447.951C245.439 450.058 245.964 452.165 247.148 454.139C247.674 454.928 247.541 456.113 246.619 456.772C245.829 457.3 244.644 457.169 243.986 456.248C242.145 453.616 241.62 450.456 242.281 447.427C242.942 444.399 244.655 441.632 247.422 439.919C250.056 438.073 253.217 437.544 256.244 438.2C259.272 438.856 262.036 440.566 263.745 443.33C264.535 443.856 264.403 444.777 263.744 445.436Z" fill="#062D6F"/>
<path d="M184.422 173.739C184.027 174.134 183.631 174.529 183.236 174.925C182.446 175.452 181.392 175.453 180.603 174.663C180.077 173.874 179.946 172.689 180.868 172.03C183.503 169.921 185.217 166.892 185.483 163.468C185.749 160.045 184.83 156.754 182.725 154.122C180.62 151.49 177.593 149.781 174.17 149.52C170.747 149.259 167.455 150.184 164.82 152.292C164.029 152.819 162.976 152.82 162.187 152.031C161.661 151.241 161.53 150.056 162.452 149.397C165.877 146.498 170.223 145.31 174.568 145.702C178.913 146.093 182.861 148.197 185.623 151.75C188.517 155.171 189.699 159.515 189.301 163.86C188.771 167.547 187.057 171.104 184.422 173.739Z" fill="#062D6F"/>
<path d="M146.887 187.855C144.251 190.49 140.563 192.073 136.614 192.076C135.56 192.077 134.771 191.288 134.772 190.234C134.772 189.181 135.563 188.39 136.616 188.39C142.278 188.517 147.021 184.037 147.157 178.375C147.293 172.713 142.82 167.977 137.158 167.849C136.105 167.85 135.316 167.061 135.316 166.007C135.317 164.954 136.108 164.164 137.161 164.163C144.929 164.289 151.113 170.736 150.843 178.636C150.841 182.059 149.39 185.352 146.887 187.855Z" fill="#062D6F"/>
<path d="M226.046 149.218C225.651 149.613 224.861 149.877 224.202 149.746C221.569 149.221 219.86 146.458 220.652 143.824C221.18 141.19 223.947 139.476 226.579 140.264C227.633 140.527 228.158 141.58 228.026 142.502C227.762 143.555 226.708 144.083 225.787 143.952C225.128 143.82 224.47 144.216 224.338 144.874C224.205 145.533 224.6 146.191 225.258 146.322C226.311 146.585 226.837 147.637 226.705 148.559C226.442 148.559 226.31 148.955 226.046 149.218Z" fill="#062D6F"/>
<path d="M256.325 330.235C255.008 331.553 253.427 332.344 251.583 332.872C249.081 333.532 246.448 333.007 244.079 331.692C241.842 330.246 240.264 328.14 239.739 325.507C239.476 324.454 240.135 323.532 241.189 323.268C242.242 323.004 243.164 323.662 243.426 324.715C243.688 326.294 244.741 327.61 246.188 328.531C247.636 329.451 249.216 329.714 250.796 329.186C254.088 328.525 256.197 325.1 255.278 321.809C255.016 320.756 255.675 319.834 256.728 319.57C257.782 319.306 258.703 319.963 258.965 321.016C259.753 324.439 258.697 327.863 256.325 330.235Z" fill="#062D6F"/>
<path d="M153.414 438.672C153.15 438.936 152.755 439.331 152.36 439.463C151.174 440.122 149.989 440.255 148.804 439.861C147.751 439.598 147.226 438.545 147.49 437.492C147.754 436.438 148.807 435.911 149.861 436.173C150.124 436.173 150.387 436.173 150.651 436.173C150.782 436.041 151.046 435.777 151.046 435.514C151.178 434.856 150.915 434.329 150.257 434.198C149.204 433.936 148.678 432.883 148.942 431.829C149.206 430.776 150.26 430.248 151.313 430.511C153.814 431.167 155.261 433.931 154.6 436.433C154.468 437.355 153.941 438.145 153.414 438.672Z" fill="#062D6F"/>
<path d="M208.277 492.746C207.355 493.668 205.906 494.327 204.327 494.065C203.142 493.935 201.957 493.277 201.168 492.224C200.379 491.172 199.985 489.987 200.117 488.802C200.25 487.88 201.172 486.958 202.225 487.22C203.147 487.351 204.068 488.272 203.803 489.326C203.803 489.589 203.935 489.984 203.935 489.984C204.066 490.116 204.198 490.247 204.593 490.378C205.119 490.378 205.646 490.114 205.647 489.588C205.779 488.666 206.701 487.744 207.754 488.006C208.676 488.137 209.597 489.058 209.333 490.112C209.595 491.165 208.936 492.087 208.277 492.746Z" fill="#062D6F"/>
<path d="M284.317 401.445C282.077 403.685 278.784 405.136 275.361 404.875C274.308 404.876 273.65 403.955 273.651 402.901C273.651 401.848 274.574 401.189 275.627 401.188C279.972 401.58 283.661 398.154 283.927 393.94C284.326 389.595 280.905 385.911 276.692 385.651C275.639 385.652 274.981 384.73 274.982 383.677C274.983 382.624 275.905 381.965 276.958 381.964C283.278 382.486 288.145 387.88 287.745 394.332C287.48 396.966 286.161 399.6 284.317 401.445Z" fill="#062D6F"/>
<path d="M113.705 365.76C111.334 368.131 108.173 369.451 104.618 369.322C103.564 369.322 102.907 368.401 102.908 367.348C102.908 366.294 103.831 365.635 104.884 365.635C109.36 365.895 113.313 362.205 113.58 357.728C113.713 355.49 112.925 353.384 111.478 351.673C110.031 349.963 107.925 349.174 105.686 349.044C104.633 349.045 103.975 348.124 103.976 347.071C103.977 346.017 104.899 345.358 105.952 345.357C109.244 345.487 112.14 346.801 114.244 349.17C116.349 351.538 117.532 354.565 117.398 357.857C117.132 361.017 115.682 363.783 113.705 365.76Z" fill="#062D6F"/>
<path d="M118.048 192.485C117.917 192.617 117.785 192.749 117.653 192.88C116.467 193.803 115.019 194.199 113.571 194.069C112.122 193.938 110.806 193.149 109.885 191.965C109.359 191.175 109.492 189.99 110.151 189.331C110.941 188.804 112.126 188.935 112.784 189.592C113.179 189.987 113.442 190.25 113.968 190.25C114.363 190.381 114.89 190.381 115.285 189.986C116.076 189.458 116.208 188.273 115.551 187.352C115.024 186.563 115.157 185.377 115.816 184.719C116.606 184.191 117.791 184.322 118.449 184.98C120.29 187.349 120.025 190.509 118.048 192.485Z" fill="#062D6F"/>
<path d="M244.359 485.345C243.305 486.399 241.856 487.059 240.277 486.797C237.38 486.536 235.275 484.167 235.541 481.27C235.542 480.217 236.596 479.426 237.517 479.557C238.57 479.556 239.36 480.609 239.227 481.531C239.227 482.321 239.753 483.111 240.543 483.11C241.333 483.109 242.123 482.582 242.124 481.792C242.124 480.739 243.178 479.948 244.1 480.079C245.153 480.078 245.942 481.131 245.81 482.053C245.677 483.501 245.15 484.555 244.359 485.345Z" fill="#062D6F"/>
<path d="M67.9659 258.882C67.8341 259.014 67.7023 259.145 67.3073 259.277C64.1463 260.596 60.5924 259.151 59.2781 255.992C57.9639 252.833 59.4148 249.277 62.5758 247.958C63.4977 247.562 64.5507 248.088 64.945 249.009C65.3393 249.931 64.9434 251.116 64.0214 251.512C62.7044 252.039 62.1768 253.356 62.7024 254.673C63.2281 255.989 64.6761 256.383 65.8614 255.987C66.7834 255.591 67.968 255.985 68.3624 256.907C68.7569 257.565 68.4929 258.355 67.9659 258.882Z" fill="#062D6F"/>
<path d="M151.267 315.83C150.872 316.226 150.345 316.489 149.687 316.358C148.765 316.227 147.976 315.175 148.108 314.253C148.505 311.751 147.849 309.25 146.402 307.276C144.955 305.302 142.586 303.987 140.216 303.726C135.082 303.071 130.208 306.63 129.546 311.765C129.413 312.687 128.359 313.478 127.438 313.347C126.516 313.216 125.727 312.163 125.859 311.241C126.918 304.131 133.505 299.122 140.746 300.039C144.169 300.563 147.327 302.404 149.432 305.035C151.536 307.93 152.456 311.221 152.058 314.777C151.663 315.172 151.531 315.567 151.267 315.83Z" fill="#062D6F"/>
<path d="M205.015 453.644C204.752 453.907 204.357 454.039 203.961 454.171C203.04 454.303 201.987 453.514 201.856 452.593C201.463 449.828 200.017 447.327 197.911 445.749C195.674 444.039 192.91 443.383 190.144 443.78C187.379 444.177 184.876 445.627 183.295 447.735C181.581 449.974 180.921 452.74 181.314 455.505C181.445 456.426 180.654 457.48 179.732 457.612C178.811 457.745 177.758 456.956 177.627 456.034C177.103 452.348 178.028 448.529 180.4 445.63C182.64 442.6 185.933 440.623 189.752 440.225C193.439 439.696 197.257 440.614 200.151 442.982C203.178 445.218 205.151 448.508 205.543 452.326C205.806 452.59 205.542 453.116 205.015 453.644Z" fill="#062D6F"/>
<path d="M264.999 176.575C264.34 177.234 263.155 177.367 262.497 176.709C259.339 174.078 257.498 170.393 257.37 166.311C256.978 162.23 258.429 158.411 261.065 155.249C263.7 152.087 267.388 150.241 271.47 150.106C275.552 149.708 279.369 151.153 282.527 153.784C283.317 154.574 283.316 155.627 282.789 156.417C281.998 157.208 280.945 157.209 280.155 156.683C277.918 154.709 274.891 153.79 271.862 153.924C268.834 154.058 265.936 155.64 263.959 157.88C261.983 160.119 261.059 163.148 261.188 166.177C261.317 169.205 262.764 171.969 265.132 174.074C265.527 174.468 265.658 175.653 264.999 176.575Z" fill="#062D6F"/>
<path d="M158.867 365.331C157.417 366.78 155.573 367.835 153.598 368.495C152.544 368.759 151.491 368.233 151.229 367.18C150.966 366.127 151.494 365.073 152.547 364.809C157.42 363.357 160.057 358.352 158.612 353.481C157.168 348.611 152.166 345.981 147.294 347.433C146.24 347.697 145.187 347.171 144.925 346.118C144.662 345.065 145.19 344.011 146.243 343.747C152.959 341.767 160.198 345.58 162.168 352.294C163.087 355.584 162.821 359.008 161.108 362.038C160.58 363.355 159.789 364.408 158.867 365.331Z" fill="#062D6F"/>
<path d="M193.483 205.463C192.824 206.122 192.165 206.518 191.243 206.913C187.819 208.233 184.134 206.655 182.82 203.233C182.425 202.312 182.953 201.258 183.875 200.862C184.797 200.467 185.85 200.993 186.244 201.914C186.507 202.704 187.033 203.23 187.691 203.361C188.349 203.756 189.139 203.755 189.798 203.36C191.115 202.832 191.906 201.251 191.381 199.672C190.986 198.75 191.514 197.697 192.436 197.301C193.358 196.905 194.41 197.431 194.805 198.353C195.856 200.985 195.196 203.751 193.483 205.463Z" fill="#062D6F"/>
<path d="M124.469 409.728C123.81 410.386 122.757 410.387 121.967 409.861C121.178 409.335 121.179 408.018 121.706 407.228C122.497 406.174 122.892 404.989 122.762 403.541C122.763 402.224 122.105 401.039 120.921 400.119C119.868 399.329 118.684 398.935 117.235 399.068C115.919 399.069 114.733 399.728 113.811 400.914C113.02 401.705 111.967 401.705 111.177 401.179C110.387 400.653 110.388 399.337 110.916 398.546C112.365 396.833 114.605 395.647 116.711 395.382C119.082 395.117 121.319 395.773 123.161 397.352C124.872 398.799 126.055 401.036 126.317 403.143C126.71 405.644 126.05 407.883 124.469 409.728Z" fill="#062D6F"/>
<path d="M259.125 284.282C258.202 285.204 257.017 286.127 255.7 286.654C252.539 288.237 249.115 288.503 245.824 287.32C242.534 286.138 239.77 283.901 238.324 280.874C237.93 279.953 238.194 278.899 239.248 278.372C240.17 277.976 241.223 278.239 241.749 279.292C242.932 281.529 244.774 283.108 247.143 283.896C249.513 284.684 252.015 284.55 254.254 283.364C256.493 282.177 258.074 280.333 258.866 277.962C259.658 275.591 259.528 273.09 258.345 270.853C257.95 269.931 258.215 268.878 259.268 268.35C260.19 267.954 261.243 268.217 261.769 269.27C264.004 274.403 262.946 280.461 259.125 284.282Z" fill="#062D6F"/>
<path d="M35.6699 309.597C33.5617 311.705 30.6641 313.024 27.6355 313.421C24.0803 313.819 20.6578 312.768 17.8945 310.532C12.2363 305.928 11.3209 297.634 15.9334 291.969C16.5924 291.047 17.6457 291.046 18.5669 291.703C19.4881 292.361 19.6188 293.546 18.8282 294.337C15.5336 298.421 16.1874 304.345 20.1348 307.765C22.1085 309.476 24.6097 310.132 27.1116 309.735C29.7451 309.47 31.9843 308.283 33.4341 306.307C33.9614 305.517 35.1464 305.384 36.0676 306.042C36.8572 306.568 36.988 307.753 36.329 308.675C36.197 309.07 35.9335 309.334 35.6699 309.597Z" fill="#062D6F"/>
<path d="M105.987 299.011C105.328 299.67 104.407 299.802 103.617 299.276C99.9321 296.909 97.4333 293.093 96.5149 288.748C95.5965 284.404 96.5214 280.059 99.0259 276.238C104.035 268.598 114.438 266.615 122.071 271.613C122.86 272.139 123.254 273.324 122.595 274.246C122.068 275.036 120.883 275.432 119.962 274.774C114.171 270.829 106.007 272.415 102.184 278.343C100.339 281.241 99.5463 284.665 100.202 287.956C100.858 291.247 102.831 294.274 105.726 296.115C106.516 296.641 106.91 297.826 106.251 298.748C106.119 298.88 106.119 298.88 105.987 299.011Z" fill="#062D6F"/>
<path d="M252.181 238.072C251.917 238.336 251.786 238.468 251.391 238.6C250.337 238.864 249.416 238.206 249.022 237.285C249.022 237.021 248.759 236.758 248.627 236.89C248.495 236.759 248.232 236.759 247.969 236.759C247.705 236.759 247.442 237.023 247.573 237.154C247.442 237.286 247.441 237.549 247.441 237.813C247.704 238.866 247.045 239.788 246.123 240.184C245.069 240.448 244.148 239.79 243.754 238.869C243.36 237.684 243.624 236.367 244.283 235.445C244.811 234.391 245.864 233.601 247.05 233.205C248.235 232.809 249.551 233.071 250.473 233.729C251.526 234.255 252.315 235.307 252.709 236.492C252.84 236.887 252.576 237.677 252.181 238.072Z" fill="#062D6F"/>
<path d="M223.969 109.457C223.706 109.72 223.574 109.852 223.31 110.116C222.52 110.906 221.335 110.775 220.677 109.854C219.888 109.065 220.02 107.88 220.943 107.221C223.709 104.98 224.107 100.635 221.739 98.0035C219.503 95.2402 215.159 94.8484 212.523 97.2204C211.733 98.011 210.548 97.8802 209.89 96.9591C209.101 96.1697 209.234 94.9846 210.156 94.3255C214.503 90.7673 220.955 91.1575 224.77 95.4996C228.058 99.5787 227.79 105.636 223.969 109.457Z" fill="#062D6F"/>
<path d="M236.646 412.014C235.855 412.804 234.801 413.595 233.748 414.122C230.718 415.836 227.295 416.102 224.135 415.315C223.082 415.052 222.556 413.999 222.82 412.946C223.085 411.892 224.138 411.365 225.191 411.627C227.429 412.284 229.931 411.887 232.039 410.832C234.146 409.777 235.596 407.801 236.388 405.431C237.708 400.69 234.947 395.557 230.208 394.244C229.155 393.981 228.629 392.928 228.893 391.875C229.157 390.821 230.211 390.294 231.264 390.556C237.977 392.526 242.054 399.501 240.074 406.218C239.282 408.588 238.227 410.432 236.646 412.014Z" fill="#062D6F"/>
<path d="M181.487 399.547C181.356 399.679 181.356 399.679 181.224 399.81C178.984 401.787 176.35 402.842 173.322 402.713C170.294 402.583 167.661 401.269 165.688 399.295C163.715 397.058 162.663 394.426 162.797 391.398C162.798 390.344 163.589 389.554 164.642 389.553C165.695 389.552 166.485 390.341 166.484 391.395C166.351 393.37 167.139 395.213 168.455 396.528C169.771 397.844 171.482 398.764 173.456 398.894C175.431 399.025 177.275 398.233 178.593 396.916C179.91 395.598 180.833 393.886 180.967 391.911C180.967 390.857 181.758 390.067 182.811 390.066C183.865 390.065 184.654 390.855 184.653 391.908C184.651 395.068 183.464 397.57 181.487 399.547Z" fill="#062D6F"/>
<path d="M242.328 209.509C241.801 210.036 240.879 210.168 240.221 209.773C239.299 209.379 238.905 208.194 239.301 207.272C240.62 204.375 240.754 201.083 239.835 198.056C238.652 195.028 236.547 192.66 233.651 191.345C230.756 190.031 227.464 189.902 224.435 190.825C221.406 192.013 219.034 194.121 217.716 197.019C217.32 197.941 216.135 198.337 215.213 197.942C214.292 197.548 213.898 196.363 214.294 195.441C216.008 191.622 219.17 188.723 223.253 187.271C227.204 185.952 231.549 186.08 235.366 187.789C239.183 189.498 242.077 192.656 243.522 196.736C244.836 200.685 244.701 205.03 242.987 208.85C242.591 208.982 242.591 209.245 242.328 209.509Z" fill="#062D6F"/>
<path d="M163.692 252.095C160.529 255.258 155.92 256.709 151.312 255.791C144.072 254.348 139.469 247.11 141.054 239.736C141.319 238.682 142.241 238.023 143.294 238.286C144.347 238.548 145.005 239.47 144.74 240.523C143.683 245.79 146.971 250.923 152.105 252.104C157.371 253.153 162.508 249.858 163.697 244.722C163.961 243.669 164.883 243.01 165.936 243.272C166.99 243.535 167.647 244.456 167.383 245.509C166.723 248.011 165.405 250.382 163.692 252.095Z" fill="#062D6F"/>
<path d="M206.34 267.337C206.208 267.468 206.208 267.468 206.076 267.6C204.627 268.786 202.915 269.446 201.203 269.315C197.517 269.055 194.623 265.897 194.757 262.079C194.758 261.025 195.68 260.366 196.733 260.365C197.787 260.365 198.444 261.286 198.444 262.339C198.311 264.051 199.758 265.498 201.338 265.497C202.128 265.496 202.918 265.232 203.445 264.705C203.972 264.178 204.499 263.388 204.5 262.598C204.501 261.545 205.423 260.886 206.476 260.885C207.53 260.884 208.187 261.805 208.186 262.859C208.317 264.57 207.526 266.151 206.34 267.337Z" fill="#062D6F"/>
<path d="M160.822 215.495C160.032 216.285 158.978 216.813 157.925 216.813C156.739 216.946 155.687 216.42 154.765 215.762C153.976 214.973 153.977 213.92 154.767 213.129C155.426 212.47 156.611 212.338 157.401 213.127C157.532 213.259 157.796 213.259 157.927 213.39C157.927 213.39 158.19 213.39 158.454 213.126C158.586 212.995 158.586 212.731 158.718 212.6C158.718 212.6 158.718 212.336 158.455 212.073C157.665 211.284 157.666 210.23 158.457 209.44C159.116 208.781 160.301 208.648 161.09 209.438C161.879 210.227 162.405 211.28 162.536 212.465C162.667 213.65 162.139 214.704 161.48 215.626C160.822 215.495 160.822 215.495 160.822 215.495Z" fill="#062D6F"/>
<path d="M275.392 538.778C274.997 539.174 274.47 539.701 273.943 539.964C270.386 542.732 266.04 543.92 261.695 543.528C260.774 543.397 259.853 542.477 260.117 541.423C260.249 540.501 261.172 539.579 262.225 539.841C265.78 540.234 269.072 539.31 271.838 537.069C274.605 534.829 276.319 531.799 276.717 528.244C277.114 524.689 276.195 521.398 273.959 518.635C271.723 515.871 268.696 514.162 265.141 513.77C264.219 513.639 263.299 512.718 263.563 511.664C263.695 510.742 264.617 509.82 265.67 510.083C270.147 510.606 274.095 512.71 276.857 516.262C279.62 519.815 280.801 524.159 280.403 528.505C279.742 532.85 278.027 536.143 275.392 538.778Z" fill="#062D6F"/>
<path d="M193.28 124.621C192.753 125.148 191.831 125.281 191.041 125.018C190.12 124.624 189.726 123.439 190.385 122.517C190.912 121.463 190.518 120.279 189.597 119.621C189.071 119.358 188.544 119.358 187.885 119.49C187.359 119.754 186.832 120.018 186.568 120.545C186.172 121.467 184.987 121.863 184.066 121.205C183.144 120.811 182.75 119.626 183.409 118.704C184.2 117.387 185.386 116.201 186.835 115.805C188.284 115.409 189.995 115.539 191.311 116.328C194.207 117.906 195.257 121.328 193.675 124.226C193.543 124.358 193.412 124.49 193.28 124.621Z" fill="#062D6F"/>
<path d="M76.3515 313.648C76.088 313.912 75.6929 314.044 75.2978 314.176C70.0304 315.233 65.0297 311.814 64.1119 306.679C63.7187 304.178 64.1156 301.676 65.5656 299.437C66.8838 297.329 69.1232 295.879 71.7569 295.35C72.8104 295.086 73.7316 295.744 73.9941 296.797C74.2567 297.85 73.5977 298.772 72.5441 299.036C69.3838 299.565 67.2748 302.727 67.9306 306.018C68.4549 309.178 71.6133 311.282 74.9054 310.621C75.959 310.357 76.8801 311.015 77.1427 312.068C77.0105 312.726 76.7468 313.253 76.3515 313.648Z" fill="#062D6F"/>
<path d="M42.4113 274.701C42.1477 274.964 41.7527 275.096 41.3576 275.228C40.4358 275.361 39.3831 274.572 39.2521 273.65C39.1215 272.202 37.6739 271.281 36.357 271.545C34.9086 271.678 33.9859 273.127 34.2482 274.444C34.3792 275.365 33.5884 276.419 32.6667 276.552C31.7449 276.684 30.6922 275.895 30.5612 274.973C30.0371 271.55 32.6728 268.388 35.9647 267.991C39.3884 267.462 42.5464 270.093 42.9389 273.384C42.9387 273.647 42.8066 274.306 42.4113 274.701Z" fill="#062D6F"/>
<path d="M248.095 68.7541C247.304 69.5447 246.25 70.0721 245.065 70.2047C243.617 70.3374 242.432 69.9433 241.379 69.1541C239.274 67.3124 239.013 64.1526 240.727 61.913C241.254 61.1226 242.57 61.1217 243.36 61.6477C244.15 62.1738 244.149 63.4905 243.621 64.2808C243.094 64.8079 243.225 65.7294 243.752 66.2557C244.278 66.782 245.2 66.6496 245.727 66.1226C246.254 65.3322 247.571 65.3312 248.36 65.8573C249.15 66.3833 249.149 67.7 248.622 68.4904C248.358 68.4906 248.226 68.6223 248.095 68.7541Z" fill="#062D6F"/>
<path d="M103.403 232.917C102.349 233.971 101.032 235.026 99.7146 235.817C91.6798 240.168 81.5436 237.41 77.2047 229.382C76.8104 228.461 77.0745 227.407 77.8649 226.88C78.7868 226.484 79.8399 226.747 80.366 227.536C82.0754 230.563 84.7071 232.668 88.1296 233.719C91.4206 234.638 94.9758 234.24 97.8736 232.658C100.903 230.944 103.012 228.309 104.068 224.885C104.992 221.593 104.6 218.038 103.022 215.143C102.627 214.221 102.892 213.168 103.682 212.641C104.604 212.245 105.657 212.508 106.183 213.297C108.287 217.246 108.81 221.722 107.49 225.936C106.83 228.438 105.38 230.941 103.403 232.917Z" fill="#062D6F"/>
<path d="M238.403 526.824C238.14 527.088 237.613 527.352 237.086 527.352C231.951 527.751 227.477 523.804 227.218 518.538C226.827 513.403 230.78 508.924 236.047 508.656C237.1 508.656 238.021 509.313 238.021 510.367C238.02 511.42 237.361 512.342 236.307 512.343C233.279 512.477 230.907 515.112 231.168 518.272C231.297 521.3 233.929 523.668 237.089 523.402C238.142 523.401 239.064 524.059 239.063 525.112C238.799 525.902 238.667 526.561 238.403 526.824Z" fill="#062D6F"/>
<path d="M205.642 320.135C201.953 323.824 196.027 324.224 191.816 321.067C191.027 320.541 190.764 319.224 191.555 318.434C192.082 317.643 193.399 317.379 194.189 318.168C197.215 320.404 201.429 319.875 203.669 316.845C205.91 313.815 205.386 309.602 202.36 307.366C201.57 306.84 201.308 305.523 202.098 304.733C202.626 303.942 203.943 303.678 204.732 304.467C209.338 308.019 210.254 314.733 206.696 319.344C206.301 319.476 205.905 319.871 205.642 320.135Z" fill="#062D6F"/>
<path d="M283.735 122.842C283.34 123.237 282.813 123.501 282.155 123.37C281.102 123.107 280.444 122.186 280.577 121.264C281.106 118.367 280.449 115.603 278.739 113.102C277.161 110.734 274.529 109.156 271.633 108.631C268.737 108.107 265.971 108.767 263.468 110.481C261.097 112.062 259.515 114.697 258.986 117.594C258.722 118.647 257.8 119.306 256.879 119.175C255.825 118.913 255.168 117.992 255.3 117.07C255.961 113.251 258.071 109.826 261.364 107.586C264.657 105.345 268.476 104.42 272.294 105.076C276.112 105.731 279.533 107.835 281.769 111.125C284.005 114.415 284.924 118.233 284.263 122.052C284.263 122.315 283.999 122.578 283.735 122.842Z" fill="#062D6F"/>
<path d="M202.845 363.191C202.581 363.455 202.318 363.718 201.923 363.85C200.869 364.378 199.815 364.642 198.631 364.248C197.578 363.985 197.052 362.932 197.184 362.011C197.448 360.957 198.502 360.43 199.423 360.561C199.687 360.56 199.95 360.56 199.95 360.56C200.082 360.428 200.214 360.297 200.345 360.165C200.477 359.77 200.214 359.507 199.819 359.375C198.766 359.113 198.24 358.06 198.373 357.138C198.637 356.085 199.69 355.557 200.612 355.688C202.982 356.213 204.428 358.714 203.768 360.952C203.767 362.006 203.372 362.664 202.845 363.191Z" fill="#062D6F"/>
<path d="M206.761 232.445C204.916 234.29 202.546 235.082 200.176 235.083C195.041 234.955 191.094 230.745 191.098 225.742C191.099 224.689 191.889 223.898 192.943 223.897C193.996 223.896 194.785 224.686 194.784 225.739C194.651 228.768 197.15 231.267 200.178 231.397C201.627 231.527 203.076 230.868 204.13 229.814C205.184 228.76 205.711 227.443 205.844 225.994C205.845 224.941 206.635 224.15 207.689 224.149C208.742 224.149 209.532 224.938 209.531 225.991C209.397 228.493 208.474 230.732 206.761 232.445Z" fill="#062D6F"/>
<path d="M245.372 363.554C244.45 364.477 243.133 365.004 241.816 365.005C238.919 365.008 236.551 362.903 236.422 359.874C236.422 358.821 237.213 358.031 238.266 358.03C239.32 358.029 240.109 358.818 240.108 359.872C240.24 360.267 240.371 360.662 240.634 360.925C240.897 361.188 241.292 361.319 241.819 361.319C242.214 361.187 242.609 361.055 242.872 360.791C243.136 360.528 243.268 360.133 243.268 359.606C243.269 358.553 244.06 357.762 245.113 357.761C246.166 357.761 246.956 358.55 246.955 359.603C246.822 361.052 246.295 362.369 245.372 363.554Z" fill="#062D6F"/>
<path d="M178.402 300.01C177.875 300.537 177.217 300.933 176.426 301.46C172.079 303.965 166.682 302.521 164.184 298.178C163.658 297.388 163.922 296.071 164.844 295.676C165.634 295.148 166.819 295.542 167.345 296.332C168.792 298.833 171.951 299.62 174.454 298.17C175.639 297.511 176.562 296.325 176.826 295.008C177.09 293.691 176.96 292.243 176.302 291.059C175.776 290.269 176.172 289.084 176.962 288.557C177.753 288.029 178.938 288.423 179.464 289.213C180.647 291.187 181.04 293.688 180.38 295.927C180.379 297.507 179.588 298.824 178.402 300.01Z" fill="#062D6F"/>
<path d="M68.9472 354.997C68.4201 355.524 67.4984 355.656 66.7086 355.393C65.919 354.867 65.5249 353.683 66.0521 352.892C66.7113 351.707 66.3174 350.259 65.1329 349.601C63.9484 348.944 62.4998 349.34 61.8406 350.525C61.3133 351.316 60.1281 351.712 59.3385 351.186C58.5489 350.66 58.1548 349.475 58.682 348.685C60.2642 345.787 63.9516 344.731 66.9786 346.44C69.8741 348.018 70.9246 351.704 69.2107 354.733C69.2107 354.733 69.0789 354.865 68.9472 354.997Z" fill="#062D6F"/>
</g>
<defs>
<clipPath id="clip0">
<rect width="513" height="518" fill="white" transform="translate(0 294.746) rotate(-45)"/>
</clipPath>
</defs>
</svg>
