<svg width="150" height="128" viewBox="0 0 150 128" fill="none" xmlns="http://www.w3.org/2000/svg">
<g opacity="0.5">
<circle cx="2" cy="4" r="4" fill="#6B71E0"/>
<circle cx="2" cy="28" r="4" fill="#6B71E0"/>
<circle cx="2" cy="52" r="4" fill="#6B71E0"/>
<circle cx="2" cy="76" r="4" fill="#6B71E0"/>
<circle cx="2" cy="100" r="4" fill="#6B71E0"/>
<circle cx="2" cy="124" r="4" fill="#6B71E0"/>
<circle cx="26" cy="4" r="4" fill="#6B71E0"/>
<circle cx="26" cy="28" r="4" fill="#6B71E0"/>
<circle cx="26" cy="52" r="4" fill="#6B71E0"/>
<circle cx="26" cy="76" r="4" fill="#6B71E0"/>
<circle cx="26" cy="100" r="4" fill="#6B71E0"/>
<circle cx="26" cy="124" r="4" fill="#6B71E0"/>
<circle cx="50" cy="4" r="4" fill="#6B71E0"/>
<circle cx="50" cy="28" r="4" fill="#6B71E0"/>
<circle cx="50" cy="52" r="4" fill="#6B71E0"/>
<circle cx="50" cy="76" r="4" fill="#6B71E0"/>
<circle cx="50" cy="100" r="4" fill="#6B71E0"/>
<circle cx="50" cy="124" r="4" fill="#6B71E0"/>
<circle cx="74" cy="4" r="4" fill="#6B71E0"/>
<circle cx="74" cy="28" r="4" fill="#6B71E0"/>
<circle cx="74" cy="52" r="4" fill="#6B71E0"/>
<circle cx="74" cy="76" r="4" fill="#6B71E0"/>
<circle cx="74" cy="100" r="4" fill="#6B71E0"/>
<circle cx="74" cy="124" r="4" fill="#6B71E0"/>
<circle cx="98" cy="4" r="4" fill="#6B71E0"/>
<circle cx="98" cy="28" r="4" fill="#6B71E0"/>
<circle cx="98" cy="52" r="4" fill="#6B71E0"/>
<circle cx="98" cy="76" r="4" fill="#6B71E0"/>
<circle cx="98" cy="100" r="4" fill="#6B71E0"/>
<circle cx="98" cy="124" r="4" fill="#6B71E0"/>
<circle cx="122" cy="4" r="4" fill="#6B71E0"/>
<circle cx="122" cy="28" r="4" fill="#6B71E0"/>
<circle cx="122" cy="52" r="4" fill="#6B71E0"/>
<circle cx="122" cy="76" r="4" fill="#6B71E0"/>
<circle cx="122" cy="100" r="4" fill="#6B71E0"/>
<circle cx="122" cy="124" r="4" fill="#6B71E0"/>
<circle cx="146" cy="4" r="4" fill="#6B71E0"/>
<circle cx="146" cy="28" r="4" fill="#6B71E0"/>
<circle cx="146" cy="52" r="4" fill="#6B71E0"/>
<circle cx="146" cy="76" r="4" fill="#6B71E0"/>
<circle cx="146" cy="100" r="4" fill="#6B71E0"/>
<circle cx="146" cy="124" r="4" fill="#6B71E0"/>
</g>
</svg>
