<svg width="40" height="40" viewBox="0 0 40 40" fill="none" xmlns="http://www.w3.org/2000/svg">
<path fill-rule="evenodd" clip-rule="evenodd" d="M40 20.0005C40 8.95473 31.0451 0.000488281 20 0.000488281C8.95491 0.000488281 0 8.95473 0 20.0005C0 31.0449 8.95557 40.0005 20 40.0005C31.0444 40.0005 40 31.0449 40 20.0005ZM37 20.0005C37 29.3881 29.3876 37.0005 20 37.0005C10.6124 37.0005 3 29.3881 3 20.0005C3 10.6116 10.6117 3.00049 20 3.00049C29.3883 3.00049 37 10.6116 37 20.0005ZM24.0886 13.9531C24.5255 13.3668 24.4789 12.5334 23.9475 11.9997C23.363 11.4127 22.4133 11.4106 21.8262 11.9951L14.8542 18.9371L14.7082 19.1056C14.2703 19.6937 14.3189 20.53 14.8542 21.063L21.8262 28.005L21.9948 28.1499C22.5829 28.5844 23.4162 28.5341 23.9475 28.0005L24.0924 27.8319C24.5269 27.2437 24.4767 26.4105 23.943 25.8791L18.04 19.9981L23.943 14.121L24.0886 13.9531Z" fill="white"/>
</svg>
