<svg width="48" height="48" viewBox="0 0 48 48" fill="none" xmlns="http://www.w3.org/2000/svg">
<path fill-rule="evenodd" clip-rule="evenodd" d="M4 24.0005C4 12.9547 12.9549 4.00049 24 4.00049C35.0451 4.00049 44 12.9547 44 24.0005C44 35.0449 35.0444 44.0005 24 44.0005C12.9556 44.0005 4 35.0449 4 24.0005ZM7 24.0005C7 33.3881 14.6124 41.0005 24 41.0005C33.3876 41.0005 41 33.3881 41 24.0005C41 14.6116 33.3883 7.00049 24 7.00049C14.6117 7.00049 7 14.6116 7 24.0005ZM19.9114 17.9531C19.4745 17.3668 19.5211 16.5334 20.0525 15.9997C20.637 15.4127 21.5867 15.4106 22.1738 15.9951L29.1458 22.9371L29.2918 23.1056C29.7297 23.6937 29.6811 24.53 29.1458 25.063L22.1738 32.005L22.0052 32.1499C21.4171 32.5844 20.5838 32.5341 20.0525 32.0005L19.9076 31.8319C19.4731 31.2437 19.5233 30.4105 20.057 29.8791L25.96 23.9981L20.057 18.121L19.9114 17.9531Z" fill="white"/>
</svg>
