<svg width="176" height="128" viewBox="0 0 176 128" fill="none" xmlns="http://www.w3.org/2000/svg">
<g opacity="0.5">
<circle cx="4" cy="4" r="4" fill="#6B71E0"/>
<circle cx="4" cy="28" r="4" fill="#6B71E0"/>
<circle cx="4" cy="52" r="4" fill="#6B71E0"/>
<circle cx="4" cy="76" r="4" fill="#6B71E0"/>
<circle cx="4" cy="100" r="4" fill="#6B71E0"/>
<circle cx="4" cy="124" r="4" fill="#6B71E0"/>
<circle cx="28" cy="4" r="4" fill="#6B71E0"/>
<circle cx="28" cy="28" r="4" fill="#6B71E0"/>
<circle cx="28" cy="52" r="4" fill="#6B71E0"/>
<circle cx="28" cy="76" r="4" fill="#6B71E0"/>
<circle cx="28" cy="100" r="4" fill="#6B71E0"/>
<circle cx="28" cy="124" r="4" fill="#6B71E0"/>
<circle cx="52" cy="4" r="4" fill="#6B71E0"/>
<circle cx="52" cy="28" r="4" fill="#6B71E0"/>
<circle cx="52" cy="52" r="4" fill="#6B71E0"/>
<circle cx="52" cy="76" r="4" fill="#6B71E0"/>
<circle cx="52" cy="100" r="4" fill="#6B71E0"/>
<circle cx="52" cy="124" r="4" fill="#6B71E0"/>
<circle cx="76" cy="4" r="4" fill="#6B71E0"/>
<circle cx="76" cy="28" r="4" fill="#6B71E0"/>
<circle cx="76" cy="52" r="4" fill="#6B71E0"/>
<circle cx="76" cy="76" r="4" fill="#6B71E0"/>
<circle cx="76" cy="100" r="4" fill="#6B71E0"/>
<circle cx="76" cy="124" r="4" fill="#6B71E0"/>
<circle cx="100" cy="4" r="4" fill="#6B71E0"/>
<circle cx="100" cy="28" r="4" fill="#6B71E0"/>
<circle cx="100" cy="52" r="4" fill="#6B71E0"/>
<circle cx="100" cy="76" r="4" fill="#6B71E0"/>
<circle cx="100" cy="100" r="4" fill="#6B71E0"/>
<circle cx="100" cy="124" r="4" fill="#6B71E0"/>
<circle cx="124" cy="4" r="4" fill="#6B71E0"/>
<circle cx="124" cy="28" r="4" fill="#6B71E0"/>
<circle cx="124" cy="52" r="4" fill="#6B71E0"/>
<circle cx="124" cy="76" r="4" fill="#6B71E0"/>
<circle cx="124" cy="100" r="4" fill="#6B71E0"/>
<circle cx="124" cy="124" r="4" fill="#6B71E0"/>
<circle cx="148" cy="4" r="4" fill="#6B71E0"/>
<circle cx="148" cy="28" r="4" fill="#6B71E0"/>
<circle cx="148" cy="52" r="4" fill="#6B71E0"/>
<circle cx="148" cy="76" r="4" fill="#6B71E0"/>
<circle cx="148" cy="100" r="4" fill="#6B71E0"/>
<circle cx="148" cy="124" r="4" fill="#6B71E0"/>
<circle cx="172" cy="4" r="4" fill="#6B71E0"/>
<circle cx="172" cy="28" r="4" fill="#6B71E0"/>
<circle cx="172" cy="52" r="4" fill="#6B71E0"/>
<circle cx="172" cy="76" r="4" fill="#6B71E0"/>
<circle cx="172" cy="100" r="4" fill="#6B71E0"/>
<circle cx="172" cy="124" r="4" fill="#6B71E0"/>
</g>
</svg>
