<svg width="20" height="20" viewBox="0 0 20 20" fill="none" xmlns="http://www.w3.org/2000/svg">
<path d="M16.25 0C17.283 0 18.1662 0.366753 18.8997 1.10026C19.6332 1.83377 20 2.71701 20 3.75V16.25C20 17.283 19.6332 18.1662 18.8997 18.8997C18.1662 19.6332 17.283 20 16.25 20H6.8099C7.54774 18.941 8.01649 18.0295 8.21615 17.2656C8.29427 16.9705 8.52431 16.0634 8.90625 14.5443C9.08854 14.8828 9.40755 15.1736 9.86328 15.4167C10.319 15.6597 10.8073 15.7812 11.3281 15.7812C12.8993 15.7812 14.1819 15.1411 15.1758 13.8607C16.1697 12.5803 16.6667 10.9592 16.6667 8.9974C16.6667 8.26823 16.5148 7.56293 16.2109 6.88151C15.9071 6.20009 15.4883 5.59679 14.9544 5.07161C14.4206 4.54644 13.7587 4.12543 12.9688 3.80859C12.1788 3.49175 11.3238 3.33333 10.4036 3.33333C9.50087 3.33333 8.65668 3.45703 7.87109 3.70443C7.0855 3.95182 6.42144 4.28385 5.87891 4.70052C5.33637 5.11719 4.86979 5.59245 4.47917 6.1263C4.08854 6.66016 3.79991 7.21571 3.61328 7.79297C3.42665 8.37023 3.33333 8.94531 3.33333 9.51823C3.33333 10.4036 3.50477 11.1849 3.84766 11.862C4.19054 12.5391 4.69618 13.0165 5.36458 13.2943C5.47743 13.3377 5.57943 13.3377 5.67057 13.2943C5.76172 13.2509 5.82465 13.1684 5.85938 13.0469C5.94618 12.6649 6.01128 12.4002 6.05469 12.2526C6.10677 12.053 6.05903 11.8707 5.91146 11.7057C5.47743 11.1675 5.26042 10.5165 5.26042 9.7526C5.26042 8.45052 5.70964 7.33724 6.60807 6.41276C7.50651 5.48828 8.68056 5.02604 10.1302 5.02604C11.4236 5.02604 12.4327 5.3776 13.1576 6.08073C13.8824 6.78385 14.2448 7.69531 14.2448 8.8151C14.2448 10.2734 13.9518 11.5148 13.3659 12.5391C12.7799 13.5634 12.0269 14.0755 11.1068 14.0755C10.5859 14.0755 10.1649 13.8867 9.84375 13.5091C9.52257 13.1315 9.42274 12.6823 9.54427 12.1615C9.61372 11.8663 9.72873 11.4648 9.88932 10.957C10.0499 10.4492 10.178 10.0065 10.2734 9.62891C10.3689 9.2513 10.4167 8.92795 10.4167 8.65885C10.4167 8.23351 10.3016 7.87977 10.0716 7.59766C9.84158 7.31554 9.51389 7.17448 9.08854 7.17448C8.55903 7.17448 8.10981 7.4197 7.74089 7.91016C7.37196 8.40061 7.1875 9.00608 7.1875 9.72656C7.1875 10.3516 7.29167 10.8767 7.5 11.3021L6.22396 16.6927C6.01562 17.5608 5.98524 18.6632 6.13281 20H3.75C2.71701 20 1.83377 19.6332 1.10026 18.8997C0.366753 18.1662 0 17.283 0 16.25V3.75C0 2.71701 0.366753 1.83377 1.10026 1.10026C1.83377 0.366753 2.71701 0 3.75 0H16.25Z" fill="#062D6F"/>
</svg>
